<svg xmlns="http://www.w3.org/2000/svg" version="1.1" xmlns:xlink="http://www.w3.org/1999/xlink" xmlns:svgjs="http://svgjs.dev/svgjs" width="1000" height="1000" viewBox="0 0 1000 1000"><rect width="1000" height="1000" fill="#ffffff"></rect><g transform="matrix(0.7,0,0,0.7,149.57575766677348,424.6986133557242)"><svg viewBox="0 0 396 85" data-background-color="#ffffff" preserveAspectRatio="xMidYMid meet" height="214" width="1000" xmlns="http://www.w3.org/2000/svg" xmlns:xlink="http://www.w3.org/1999/xlink"><g id="tight-bounds" transform="matrix(1,0,0,1,0.24000000000003752,0.22775610656506728)"><svg viewBox="0 0 395.5199999999999 84.54447816817363" height="84.54447816817363" width="395.5199999999999"><g><svg viewBox="0 0 519.1970953215246 110.98110712578327" height="84.54447816817363" width="395.5199999999999"><g transform="matrix(1,0,0,1,0,15.338199320567732)"><svg viewBox="0 0 395.52 80.3047084846478" height="80.3047084846478" width="395.52"><g id="textblocktransform"><svg viewBox="0 0 395.52 80.3047084846478" height="80.3047084846478" width="395.52" id="textblock"><g><svg viewBox="0 0 395.52 53.79397232113357" height="53.79397232113357" width="395.52"><g transform="matrix(1,0,0,1,0,0)"><svg width="395.52" viewBox="1.0052632093429565 -40.5 301.06475830078125 40.95000076293945" height="53.79397232113357" data-palette-color="#454545"><path d="M15.75 0.25L15.75 0.25Q14.75 0.25 13.63-0.08 12.5-0.4 12-1.3L12-1.3Q10.85-5.2 9.6-9.3 8.35-13.4 7.1-17.35L7.1-17.35Q5.7-22 4.1-27.03 2.5-32.05 1.1-36.65L1.1-36.65Q0.8-37.75 1.45-38.58 2.1-39.4 3.3-39.8L3.3-39.8Q4.05-40 4.6-40L4.6-40Q6.3-40 6.8-38.3L6.8-38.3 10.5-26.45Q11-24.65 11.68-22.5 12.35-20.35 13.05-18.1 13.75-15.85 14.45-13.63 15.15-11.4 15.75-9.5L15.75-9.5Q16.7-12.65 17.82-16.32 18.95-20 20.13-23.8 21.3-27.6 22.45-31.33 23.6-35.05 24.6-38.3L24.6-38.3Q25.15-40 26.75-40L26.75-40Q27.35-40 28.15-39.8L28.15-39.8Q30.9-39.05 30.3-36.65L30.3-36.65Q27.6-27.9 24.85-19 22.1-10.1 19.4-1.3L19.4-1.3Q19-0.3 17.93-0.03 16.85 0.25 15.75 0.25ZM59.2-1.2L48.2-34.8 37.25-1.2 37.25-1.25Q36.95-0.5 36.42-0.03 35.9 0.45 35.15 0.45L35.15 0.45Q34.75 0.45 34.37 0.38 34 0.3 33.6 0.2L33.6 0.2 33.65 0.2Q30.8-0.7 31.55-3L31.55-3 42.95-37.65Q43.2-38.45 43.82-39 44.45-39.55 45.3-39.65L45.3-39.65Q46.15-39.8 46.95-39.88 47.75-39.95 48.2-39.95L48.2-39.95Q48.65-39.95 49.45-39.88 50.25-39.8 51.1-39.7L51.1-39.7Q51.8-39.6 52.47-38.95 53.15-38.3 53.5-37.65L53.5-37.65Q56.3-29.05 59.17-20.33 62.05-11.6 64.85-3L64.85-3Q65.55-0.7 62.75 0.2L62.75 0.2Q62.35 0.3 62.02 0.38 61.7 0.45 61.3 0.45L61.3 0.45Q60.6 0.45 60.02-0.03 59.45-0.5 59.2-1.25L59.2-1.25 59.2-1.2ZM51.95-12L51.95-12Q51.95-10.4 50.82-9.28 49.7-8.15 48.1-8.15L48.1-8.15Q46.5-8.15 45.4-9.28 44.3-10.4 44.3-12L44.3-12Q44.3-13.6 45.4-14.73 46.5-15.85 48.1-15.85L48.1-15.85Q49.7-15.85 50.82-14.73 51.95-13.6 51.95-12ZM96.3-11.3L96.3-8Q96.3-3.95 93.59-1.95L93.59-1.95Q92.3-1 90.92-0.48 89.55 0.05 88.25 0.05L88.25 0.05 77.34 0.05Q76.05 0.05 74.67-0.48 73.3-1 72-1.95L72-1.95Q70.69-2.95 70-4.42 69.3-5.9 69.3-8L69.3-8 69.3-31.75Q69.3-33.75 70-35.27 70.69-36.8 72-37.75L72-37.75 71.94-37.75Q73.25-38.6 74.64-39.15 76.05-39.7 77.34-39.7L77.34-39.7 88.25-39.7Q89.55-39.7 90.94-39.15 92.34-38.6 93.64-37.75L93.64-37.75 93.59-37.75Q94.89-36.8 95.59-35.27 96.3-33.75 96.3-31.75L96.3-31.75 96.3-28.3Q96.3-25.9 93.3-25.9L93.3-25.9Q90.34-25.9 90.34-28.3L90.34-28.3 90.34-31.3Q90.34-32.55 89.59-33.6 88.84-34.65 87-34.65L87-34.65 78.59-34.65Q76.75-34.65 76-33.6 75.25-32.55 75.25-31.3L75.25-31.3 75.25-8.4Q75.25-7.1 76-6.05 76.75-5 78.59-5L78.59-5 87-5Q88.84-5 89.59-6.05 90.34-7.1 90.34-8.4L90.34-8.4 90.34-11.3Q90.34-13.65 93.3-13.65L93.3-13.65Q96.3-13.65 96.3-11.3L96.3-11.3ZM127.69-1.2L116.69-34.8 105.74-1.2 105.74-1.25Q105.44-0.5 104.92-0.03 104.39 0.45 103.64 0.45L103.64 0.45Q103.24 0.45 102.87 0.38 102.49 0.3 102.09 0.2L102.09 0.2 102.14 0.2Q99.29-0.7 100.04-3L100.04-3 111.44-37.65Q111.69-38.45 112.32-39 112.94-39.55 113.79-39.65L113.79-39.65Q114.64-39.8 115.44-39.88 116.24-39.95 116.69-39.95L116.69-39.95Q117.14-39.95 117.94-39.88 118.74-39.8 119.59-39.7L119.59-39.7Q120.29-39.6 120.97-38.95 121.64-38.3 121.99-37.65L121.99-37.65Q124.79-29.05 127.67-20.33 130.54-11.6 133.34-3L133.34-3Q134.04-0.7 131.24 0.2L131.24 0.2Q130.84 0.3 130.52 0.38 130.19 0.45 129.79 0.45L129.79 0.45Q129.09 0.45 128.52-0.03 127.94-0.5 127.69-1.25L127.69-1.25 127.69-1.2ZM120.44-12L120.44-12Q120.44-10.4 119.32-9.28 118.19-8.15 116.59-8.15L116.59-8.15Q114.99-8.15 113.89-9.28 112.79-10.4 112.79-12L112.79-12Q112.79-13.6 113.89-14.73 114.99-15.85 116.59-15.85L116.59-15.85Q118.19-15.85 119.32-14.73 120.44-13.6 120.44-12ZM152.44-15.15L152.44-2Q152.44 0.4 149.49 0.4L149.49 0.4Q146.54 0.4 146.54-2L146.54-2 146.54-15.3 135.34-36.6Q135.04-37.25 135.04-37.95L135.04-37.95Q135.04-39.4 136.74-40.1L136.74-40.1 136.69-40.1Q137.79-40.5 138.44-40.5L138.44-40.5Q139.74-40.5 140.44-39.2L140.44-39.2 149.54-22.1Q150.54-24 151.69-26.18 152.84-28.35 154.02-30.6 155.19-32.85 156.34-35.05 157.49-37.25 158.54-39.2L158.54-39.2Q158.94-39.8 159.42-40.15 159.89-40.5 160.59-40.5L160.59-40.5Q161.29-40.5 162.24-40.1L162.24-40.1 162.19-40.1Q163.94-39.35 163.94-37.9L163.94-37.9Q163.94-37.6 163.89-37.27 163.84-36.95 163.64-36.6L163.64-36.6Q163.19-35.7 162.52-34.4 161.84-33.1 160.62-30.78 159.39-28.45 157.44-24.73 155.49-21 152.44-15.15L152.44-15.15ZM180.69 0.25L180.69 0.25Q179.69 0.25 178.56-0.08 177.44-0.4 176.94-1.3L176.94-1.3Q175.79-5.2 174.54-9.3 173.29-13.4 172.04-17.35L172.04-17.35Q170.64-22 169.04-27.03 167.44-32.05 166.04-36.65L166.04-36.65Q165.74-37.75 166.39-38.58 167.04-39.4 168.24-39.8L168.24-39.8Q168.99-40 169.54-40L169.54-40Q171.24-40 171.74-38.3L171.74-38.3 175.44-26.45Q175.94-24.65 176.61-22.5 177.29-20.35 177.99-18.1 178.69-15.85 179.39-13.63 180.09-11.4 180.69-9.5L180.69-9.5Q181.64-12.65 182.76-16.32 183.89-20 185.06-23.8 186.24-27.6 187.39-31.33 188.54-35.05 189.54-38.3L189.54-38.3Q190.09-40 191.69-40L191.69-40Q192.29-40 193.09-39.8L193.09-39.8Q195.84-39.05 195.24-36.65L195.24-36.65Q192.54-27.9 189.79-19 187.04-10.1 184.34-1.3L184.34-1.3Q183.94-0.3 182.86-0.03 181.79 0.25 180.69 0.25ZM206.14-37.55L206.14-2.1Q206.14 0.3 203.14 0.3L203.14 0.3Q200.19 0.3 200.19-2.1L200.19-2.1 200.19-37.55Q200.19-39.95 203.14-39.95L203.14-39.95Q206.14-39.95 206.14-37.55L206.14-37.55ZM236.73 0.05L217.28 0.05Q215.43 0.05 214.78-0.9 214.13-1.85 214.13-3L214.13-3 214.13-37.55Q214.13-39.95 217.03-39.95L217.03-39.95Q220.03-39.95 220.03-37.55L220.03-37.55 220.03-5 236.73-5Q238.53-5 238.53-2.55L238.53-2.55Q238.63 0.05 236.73 0.05L236.73 0.05ZM265.73 0.05L246.28 0.05Q244.43 0.05 243.78-0.9 243.13-1.85 243.13-3L243.13-3 243.13-37.55Q243.13-39.95 246.03-39.95L246.03-39.95Q249.03-39.95 249.03-37.55L249.03-37.55 249.03-5 265.73-5Q267.53-5 267.53-2.55L267.53-2.55Q267.63 0.05 265.73 0.05L265.73 0.05ZM296.28-1.2L285.28-34.8 274.33-1.2 274.33-1.25Q274.03-0.5 273.5-0.03 272.98 0.45 272.23 0.45L272.23 0.45Q271.83 0.45 271.45 0.38 271.08 0.3 270.68 0.2L270.68 0.2 270.73 0.2Q267.88-0.7 268.63-3L268.63-3 280.03-37.65Q280.28-38.45 280.9-39 281.53-39.55 282.38-39.65L282.38-39.65Q283.23-39.8 284.03-39.88 284.83-39.95 285.28-39.95L285.28-39.95Q285.73-39.95 286.53-39.88 287.33-39.8 288.18-39.7L288.18-39.7Q288.88-39.6 289.55-38.95 290.23-38.3 290.58-37.65L290.58-37.65Q293.38-29.05 296.25-20.33 299.13-11.6 301.93-3L301.93-3Q302.63-0.7 299.83 0.2L299.83 0.2Q299.43 0.3 299.1 0.38 298.78 0.45 298.38 0.45L298.38 0.45Q297.68 0.45 297.1-0.03 296.53-0.5 296.28-1.25L296.28-1.25 296.28-1.2ZM289.03-12L289.03-12Q289.03-10.4 287.9-9.28 286.78-8.15 285.18-8.15L285.18-8.15Q283.58-8.15 282.48-9.28 281.38-10.4 281.38-12L281.38-12Q281.38-13.6 282.48-14.73 283.58-15.85 285.18-15.85L285.18-15.85Q286.78-15.85 287.9-14.73 289.03-13.6 289.03-12Z" opacity="1" transform="matrix(1,0,0,1,0,0)" fill="#454545" class="wordmark-text-0" data-fill-palette-color="primary" id="text-0"></path></svg></g></svg></g><g transform="matrix(1,0,0,1,19.77600000000001,66.49343813081751)"><svg viewBox="0 0 375.74399999999997 13.811270353830299" height="13.811270353830299" width="375.74399999999997"><g transform="matrix(1,0,0,1,0,0)"><svg width="375.74399999999997" viewBox="1.7799999713897705 -36.060001373291016 994.8899536132812 36.56999969482422" height="13.811270353830299" data-palette-color="#454545"><path d="M11.87 0L1.78 0 1.78-1.73 5.76-1.88 5.76-33.67 1.78-33.81 1.78-35.55 11.87-35.55 11.87-33.81 7.89-33.67 7.89-18.55 29.27-18.55 29.27-33.67 25.29-33.81 25.29-35.55 29.27-35.55 31.4-35.55 35.38-35.55 35.38-33.81 31.4-33.67 31.4-1.88 35.38-1.73 35.38 0 25.29 0 25.29-1.73 29.27-1.88 29.27-16.67 7.89-16.67 7.89-1.88 11.87-1.73 11.87 0ZM54.88 0.51L54.88 0.51Q51.54 0.51 48.8-0.78 46.07-2.08 44.1-4.46 42.14-6.84 41.07-10.16 40.01-13.48 40.01-17.55L40.01-17.55 40.01-17.99Q40.01-22.07 41.06-25.39 42.11-28.71 44.08-31.09 46.04-33.47 48.76-34.77 51.49-36.06 54.83-36.06L54.83-36.06Q58.23-36.06 60.96-34.77 63.69-33.47 65.66-31.09 67.62-28.71 68.67-25.39 69.72-22.07 69.72-17.99L69.72-17.99 69.72-17.55Q69.72-13.48 68.67-10.14 67.62-6.81 65.68-4.44 63.74-2.08 61-0.78 58.25 0.51 54.88 0.51ZM54.88-1.42L54.88-1.42Q58.86-1.42 61.7-3.42 64.55-5.42 66.06-9.06 67.58-12.7 67.58-17.55L67.58-17.55 67.58-18.04Q67.58-22.88 66.05-26.49 64.52-30.1 61.67-32.1 58.81-34.11 54.83-34.11L54.83-34.11Q50.95-34.11 48.11-32.1 45.26-30.1 43.71-26.49 42.16-22.88 42.16-18.04L42.16-18.04 42.16-17.55Q42.16-12.7 43.71-9.07 45.26-5.44 48.12-3.43 50.97-1.42 54.88-1.42ZM98.55 0L74.51 0 74.51-1.73 78.49-1.88 78.49-33.67 74.51-33.81 74.51-35.55 78.49-35.55 80.63-35.55 84.61-35.55 84.61-33.81 80.63-33.67 80.63-1.86 96.55-1.86 96.67-7.64 98.55-7.64 98.55 0ZM113.2 0L103.12 0 103.12-1.73 107.1-1.88 107.1-33.67 103.12-33.81 103.12-35.55 113.2-35.55 113.2-33.81 109.22-33.67 109.22-1.88 113.2-1.73 113.2 0ZM130.53 0L116.79 0 116.79-1.73 120.77-1.88 120.77-33.67 116.79-33.81 116.79-35.55 120.77-35.55 130.48-35.55Q134.93-35.55 138.36-33.29 141.79-31.03 143.75-27.09 145.72-23.14 145.72-18.02L145.72-18.02 145.72-17.5Q145.72-12.43 143.78-8.47 141.84-4.52 138.42-2.26 135 0 130.53 0L130.53 0ZM122.89-33.67L122.89-1.88 130.48-1.88Q134.32-1.88 137.27-3.93 140.22-5.98 141.91-9.52 143.59-13.06 143.59-17.5L143.59-17.5 143.59-18.09Q143.59-22.56 141.91-26.07 140.22-29.59 137.27-31.63 134.32-33.67 130.48-33.67L130.48-33.67 122.89-33.67ZM156.34 0L148.18 0 148.18-1.73 150.82-1.81 163.51-35.55 165.71-35.55 178.38-1.81 180.99-1.73 180.99 0 172.84 0 172.84-1.73 176.13-1.83 172.91-10.5 156.26-10.5 153.04-1.83 156.34-1.73 156.34 0ZM163.95-31.18L156.99-12.45 172.2-12.45 165.27-31.18 164.68-32.91 164.54-32.91 163.95-31.18ZM199.42 0L189.32 0 189.32-1.73 193.3-1.88 193.3-13.38 181.11-33.72 178.18-33.81 178.18-35.55 187.14-35.55 187.14-33.81 183.55-33.72 193.74-16.31 194.35-15.16 194.37-15.21 194.96-16.31 205.26-33.72 201.65-33.81 201.65-35.55 210.53-35.55 210.53-33.81 207.58-33.72 195.44-13.45 195.44-1.88 199.42-1.73 199.42 0ZM235.77 0L225.69 0 225.69-1.73 229.67-1.88 229.67-33.67 225.69-33.81 225.69-35.55 235.77-35.55 235.77-33.81 231.79-33.67 231.79-18.55 253.18-18.55 253.18-33.67 249.2-33.81 249.2-35.55 253.18-35.55 255.3-35.55 259.28-35.55 259.28-33.81 255.3-33.67 255.3-1.88 259.28-1.73 259.28 0 249.2 0 249.2-1.73 253.18-1.88 253.18-16.67 231.79-16.67 231.79-1.88 235.77-1.73 235.77 0ZM278.79 0.51L278.79 0.51Q275.44 0.51 272.71-0.78 269.97-2.08 268.01-4.46 266.04-6.84 264.98-10.16 263.92-13.48 263.92-17.55L263.92-17.55 263.92-17.99Q263.92-22.07 264.97-25.39 266.02-28.71 267.98-31.09 269.95-33.47 272.67-34.77 275.39-36.06 278.74-36.06L278.74-36.06Q282.13-36.06 284.87-34.77 287.6-33.47 289.56-31.09 291.53-28.71 292.58-25.39 293.63-22.07 293.63-17.99L293.63-17.99 293.63-17.55Q293.63-13.48 292.58-10.14 291.53-6.81 289.59-4.44 287.65-2.08 284.9-0.78 282.16 0.51 278.79 0.51ZM278.79-1.42L278.79-1.42Q282.77-1.42 285.61-3.42 288.45-5.42 289.97-9.06 291.48-12.7 291.48-17.55L291.48-17.55 291.48-18.04Q291.48-22.88 289.96-26.49 288.43-30.1 285.57-32.1 282.72-34.11 278.74-34.11L278.74-34.11Q274.86-34.11 272.01-32.1 269.17-30.1 267.62-26.49 266.07-22.88 266.07-18.04L266.07-18.04 266.07-17.55Q266.07-12.7 267.62-9.07 269.17-5.44 272.02-3.43 274.88-1.42 278.79-1.42ZM308.57 0L298.49 0 298.49-1.73 302.47-1.88 302.47-33.67 298.49-33.81 298.49-35.55 302.47-35.55 305.39-35.55 319.24-3.59 319.38-3.59 333.18-35.55 340.18-35.55 340.18-33.81 336.21-33.67 336.21-1.88 340.18-1.73 340.18 0 330.1 0 330.1-1.73 334.13-1.88 334.13-19.12 334.13-32.25 333.98-32.3 320.09-0.29 318.55-0.29 304.61-32.15 304.49-32.1 304.52-19.63 304.52-1.88 308.57-1.73 308.57 0ZM369.77 0L343.82 0 343.82-1.73 347.8-1.88 347.8-33.67 343.82-33.81 343.82-35.55 369.04-35.55 369.04-28.08 367.14-28.08 367.01-33.67 349.92-33.67 349.92-19.43 364.79-19.43 364.79-17.55 349.92-17.55 349.92-1.86 367.75-1.86 367.87-7.47 369.77-7.47 369.77 0ZM387.71 0.51L387.71 0.51Q384.76 0.51 381.7-0.4 378.63-1.32 375.75-3.27L375.75-3.27 375.75-9.86 377.63-9.86 377.83-4.32Q380.22-2.81 382.73-2.1 385.25-1.39 387.71-1.39L387.71-1.39Q390.67-1.39 392.93-2.31 395.18-3.22 396.45-4.87 397.72-6.52 397.72-8.67L397.72-8.67Q397.72-10.79 396.72-12.35 395.72-13.92 393.46-15.12 391.21-16.33 387.37-17.36L387.37-17.36Q383.42-18.43 381-19.74 378.58-21.04 377.48-22.86 376.39-24.68 376.39-27.27L376.39-27.27Q376.39-29.88 377.78-31.85 379.17-33.81 381.68-34.94 384.2-36.06 387.54-36.06L387.54-36.06Q391.03-36.06 393.83-35.01 396.63-33.96 398.65-32.25L398.65-32.25 398.65-26.22 396.77-26.22 396.6-31.23Q394.87-32.64 392.58-33.4 390.3-34.16 387.54-34.16L387.54-34.16Q384.69-34.16 382.66-33.23 380.63-32.3 379.57-30.75 378.51-29.2 378.51-27.34L378.51-27.34Q378.51-25.44 379.3-24 380.1-22.56 382.17-21.44 384.25-20.31 388.06-19.31L388.06-19.31Q393.89-17.77 396.88-15.33 399.87-12.89 399.87-8.72L399.87-8.72Q399.87-5.91 398.3-3.83 396.72-1.76 393.99-0.62 391.25 0.51 387.71 0.51ZM426.92 0.51L426.92 0.51Q423.57 0.51 421.16-0.63 418.74-1.78 417.42-3.88 416.1-5.98 416.1-8.81L416.1-8.81Q416.1-11.65 417.75-13.96 419.4-16.28 422.43-18.73L422.43-18.73Q422.69-18.95 422.95-19.14 423.21-19.34 423.45-19.53L423.45-19.53Q421.47-22.02 420.52-24.05 419.57-26.07 419.57-28.25L419.57-28.25Q419.57-30.76 420.52-32.51 421.47-34.25 423.21-35.16 424.94-36.06 427.36-36.06L427.36-36.06Q429.63-36.06 431.23-35.22 432.83-34.38 433.69-32.87 434.56-31.37 434.56-29.39L434.56-29.39Q434.56-27.27 433.53-25.77 432.51-24.27 430.63-22.78L430.63-22.78 426.21-19.31 437.05-6.86Q438.3-8.67 439-10.89 439.71-13.11 439.71-15.65L439.71-15.65 441.74-15.65Q441.74-12.57 440.86-10.02 439.98-7.47 438.37-5.35L438.37-5.35 442.88-0.12 442.84 0 440.42 0 437-3.91Q435.12-2.08 432.69-0.78 430.26 0.51 426.92 0.51ZM426.92-1.37L426.92-1.37Q429.38-1.37 431.68-2.39 433.97-3.42 435.76-5.35L435.76-5.35 424.65-18.09 423.45-17.14Q420.35-14.55 419.29-12.56 418.23-10.57 418.23-8.81L418.23-8.81Q418.23-5.66 420.47-3.52 422.72-1.37 426.92-1.37ZM425.06-20.68L425.06-20.68 429.75-24.34Q431.22-25.49 431.85-26.75 432.48-28 432.48-29.39L432.48-29.39Q432.48-31.49 431.15-32.84 429.82-34.18 427.36-34.18L427.36-34.18Q424.65-34.18 423.18-32.5 421.72-30.81 421.72-28.3L421.72-28.3Q421.72-26.51 422.52-24.62 423.33-22.73 425.06-20.68ZM466.71 0L458.55 0 458.55-1.73 461.19-1.81 473.89-35.55 476.08-35.55 488.75-1.81 491.37-1.73 491.37 0 483.21 0 483.21-1.73 486.51-1.83 483.29-10.5 466.63-10.5 463.41-1.83 466.71-1.73 466.71 0ZM474.33-31.18L467.37-12.45 482.58-12.45 475.64-31.18 475.06-32.91 474.91-32.91 474.33-31.18ZM505.28 0L495.2 0 495.2-1.73 499.18-1.88 499.18-33.67 495.2-33.81 495.2-35.55 499.18-35.55 509.65-35.55Q513.36-35.55 515.95-34.28 518.54-33.01 519.89-30.7 521.25-28.39 521.25-25.29L521.25-25.29Q521.25-22.17 519.89-19.86 518.54-17.55 515.95-16.3 513.36-15.04 509.65-15.04L509.65-15.04 501.3-15.04 501.3-1.88 505.28-1.73 505.28 0ZM501.3-33.67L501.3-16.92 509.65-16.92Q514.36-16.92 516.74-19.3 519.12-21.68 519.12-25.24L519.12-25.24Q519.12-28.91 516.75-31.29 514.39-33.67 509.65-33.67L509.65-33.67 501.3-33.67ZM527.81 0L519.66 0 519.66-1.73 522.29-1.81 534.99-35.55 537.19-35.55 549.86-1.81 552.47-1.73 552.47 0 544.32 0 544.32-1.73 547.61-1.83 544.39-10.5 527.74-10.5 524.52-1.83 527.81-1.73 527.81 0ZM535.43-31.18L528.47-12.45 543.68-12.45 536.75-31.18 536.16-32.91 536.01-32.91 535.43-31.18ZM566.38 0.02L556.3 0.02 556.3-1.71 560.28-1.86 560.28-33.64 556.3-33.79 556.3-35.52 570.95-35.52Q574.73-35.52 577.36-34.42 579.98-33.33 581.34-31.19 582.69-29.05 582.69-25.93L582.69-25.93Q582.69-22.9 581.25-20.8 579.81-18.7 577.2-17.61 574.59-16.53 571.1-16.53L571.1-16.53 562.4-16.48 562.4-1.86 566.38-1.71 566.38 0.02ZM584.96 0.02L580.42 0.02 572.88-17.58 575-17.6 581.91-1.83 584.96-1.73 584.96 0.02ZM562.4-33.64L562.4-18.38 570.75-18.38Q575.83-18.38 578.2-20.5 580.57-22.61 580.57-25.93L580.57-25.93Q580.57-29.64 578.16-31.64 575.76-33.64 570.95-33.64L570.95-33.64 562.4-33.64ZM606.93 0L596.85 0 596.85-1.73 600.83-1.88 600.83-33.69 590.04-33.69 589.87-28.08 588.04-28.08 588.04-35.55 615.77-35.55 615.77-28.08 613.94-28.08 613.77-33.69 602.95-33.69 602.95-1.88 606.93-1.73 606.93 0ZM629.83 0L619.75 0 619.75-1.73 623.73-1.88 623.73-33.67 619.75-33.81 619.75-35.55 623.73-35.55 626.66-35.55 640.5-3.59 640.65-3.59 654.44-35.55 661.45-35.55 661.45-33.81 657.47-33.67 657.47-1.88 661.45-1.73 661.45 0 651.36 0 651.36-1.73 655.39-1.88 655.39-19.12 655.39-32.25 655.25-32.3 641.35-0.29 639.82-0.29 625.88-32.15 625.75-32.1 625.78-19.63 625.78-1.88 629.83-1.73 629.83 0ZM691.03 0L665.08 0 665.08-1.73 669.06-1.88 669.06-33.67 665.08-33.81 665.08-35.55 690.3-35.55 690.3-28.08 688.4-28.08 688.28-33.67 671.19-33.67 671.19-19.43 686.05-19.43 686.05-17.55 671.19-17.55 671.19-1.86 689.01-1.86 689.13-7.47 691.03-7.47 691.03 0ZM706.41 0L696.3 0 696.3-1.73 700.28-1.88 700.28-33.67 696.3-33.81 696.3-35.55 700.28-35.55 702.43-35.55 723.99-3.74 724.14-3.78 724.14-33.67 720.08-33.81 720.08-35.55 726.19-35.55 730.17-35.55 730.17-33.81 726.19-33.67 726.19 0 724.14 0 702.48-31.88 702.34-31.84 702.34-1.88 706.41-1.73 706.41 0ZM752.89 0L742.81 0 742.81-1.73 746.79-1.88 746.79-33.69 736-33.69 735.83-28.08 734-28.08 734-35.55 761.73-35.55 761.73-28.08 759.9-28.08 759.73-33.69 748.91-33.69 748.91-1.88 752.89-1.73 752.89 0ZM787.78 0.02L777.69 0.02 777.69-1.71 781.67-1.86 781.67-33.64 777.69-33.79 777.69-35.52 792.34-35.52Q796.13-35.52 798.75-34.42 801.38-33.33 802.73-31.19 804.09-29.05 804.09-25.93L804.09-25.93Q804.09-22.9 802.64-20.8 801.2-18.7 798.59-17.61 795.98-16.53 792.49-16.53L792.49-16.53 783.8-16.48 783.8-1.86 787.78-1.71 787.78 0.02ZM806.36 0.02L801.81 0.02 794.27-17.58 796.39-17.6 803.3-1.83 806.36-1.73 806.36 0.02ZM783.8-33.64L783.8-18.38 792.15-18.38Q797.23-18.38 799.59-20.5 801.96-22.61 801.96-25.93L801.96-25.93Q801.96-29.64 799.56-31.64 797.15-33.64 792.34-33.64L792.34-33.64 783.8-33.64ZM837.07 0L811.11 0 811.11-1.73 815.09-1.88 815.09-33.67 811.11-33.81 811.11-35.55 836.33-35.55 836.33-28.08 834.43-28.08 834.31-33.67 817.22-33.67 817.22-19.43 832.09-19.43 832.09-17.55 817.22-17.55 817.22-1.86 835.04-1.86 835.16-7.47 837.07-7.47 837.07 0ZM852.44 0L842.34 0 842.34-1.73 846.32-1.88 846.32-33.67 842.34-33.81 842.34-35.55 846.32-35.55 848.47-35.55 870.02-3.74 870.17-3.78 870.17-33.67 866.12-33.81 866.12-35.55 872.22-35.55 876.2-35.55 876.2-33.81 872.22-33.67 872.22 0 870.17 0 848.51-31.88 848.37-31.84 848.37-1.88 852.44-1.73 852.44 0ZM898.93 0L888.84 0 888.84-1.73 892.82-1.88 892.82-33.69 882.03-33.69 881.86-28.08 880.03-28.08 880.03-35.55 907.76-35.55 907.76-28.08 905.93-28.08 905.76-33.69 894.95-33.69 894.95-1.88 898.93-1.73 898.93 0ZM914.72 0L906.57 0 906.57-1.73 909.2-1.81 921.9-35.55 924.09-35.55 936.77-1.81 939.38-1.73 939.38 0 931.22 0 931.22-1.73 934.52-1.83 931.3-10.5 914.65-10.5 911.42-1.83 914.72-1.73 914.72 0ZM922.34-31.18L915.38-12.45 930.59-12.45 923.66-31.18 923.07-32.91 922.92-32.91 922.34-31.18ZM967.26 0L943.21 0 943.21-1.73 947.19-1.88 947.19-33.67 943.21-33.81 943.21-35.55 947.19-35.55 949.34-35.55 953.32-35.55 953.32-33.81 949.34-33.67 949.34-1.86 965.25-1.86 965.38-7.64 967.26-7.64 967.26 0ZM984.51 0.51L984.51 0.51Q981.56 0.51 978.5-0.4 975.43-1.32 972.55-3.27L972.55-3.27 972.55-9.86 974.43-9.86 974.63-4.32Q977.02-2.81 979.53-2.1 982.05-1.39 984.51-1.39L984.51-1.39Q987.47-1.39 989.73-2.31 991.99-3.22 993.25-4.87 994.52-6.52 994.52-8.67L994.52-8.67Q994.52-10.79 993.52-12.35 992.52-13.92 990.26-15.12 988.01-16.33 984.17-17.36L984.17-17.36Q980.22-18.43 977.8-19.74 975.38-21.04 974.29-22.86 973.19-24.68 973.19-27.27L973.19-27.27Q973.19-29.88 974.58-31.85 975.97-33.81 978.48-34.94 981-36.06 984.34-36.06L984.34-36.06Q987.84-36.06 990.63-35.01 993.43-33.96 995.45-32.25L995.45-32.25 995.45-26.22 993.57-26.22 993.4-31.23Q991.67-32.64 989.39-33.4 987.1-34.16 984.34-34.16L984.34-34.16Q981.49-34.16 979.46-33.23 977.43-32.3 976.37-30.75 975.31-29.2 975.31-27.34L975.31-27.34Q975.31-25.44 976.1-24 976.9-22.56 978.97-21.44 981.05-20.31 984.86-19.31L984.86-19.31Q990.69-17.77 993.68-15.33 996.67-12.89 996.67-8.72L996.67-8.72Q996.67-5.91 995.1-3.83 993.52-1.76 990.79-0.62 988.05 0.51 984.51 0.51Z" opacity="1" transform="matrix(1,0,0,1,0,0)" fill="#454545" class="slogan-text-1" data-fill-palette-color="secondary" id="text-1"></path></svg></g></svg></g></svg></g></svg></g><g transform="matrix(1,0,0,1,408.2194658096839,0)"><svg viewBox="0 0 110.97762951184066 110.98110712578327" height="110.98110712578327" width="110.97762951184066"><g><svg xmlns="http://www.w3.org/2000/svg" xmlns:xlink="http://www.w3.org/1999/xlink" version="1.1" x="0" y="0" viewBox="18.350997924804688 18.347999572753906 63.30200958251953 63.303993225097656" enable-background="new 0 0 100 100" xml:space="preserve" height="110.98110712578327" width="110.97762951184066" class="icon-icon-0" data-fill-palette-color="accent" id="icon-0"><g fill="#d5880a" data-fill-palette-color="accent"><path fill="#d5880a" d="M80.951 48.597c-4.329-3.261-9.009-4.911-13.907-4.911-0.107 0-0.213 0-0.32 0.002-0.104-0.002-0.212-0.002-0.318-0.002-0.431 0-0.857 0.029-1.283 0.054 0.399-0.354 0.792-0.717 1.168-1.103 3.598-3.496 5.814-8.047 6.587-13.531 0.078-0.548-0.105-1.098-0.496-1.487-0.391-0.39-0.941-0.573-1.488-0.497-5.482 0.773-10.035 2.99-13.529 6.589-0.384 0.373-0.744 0.764-1.097 1.161 0.032-0.53 0.054-1.062 0.046-1.597 0.073-5.016-1.579-9.801-4.91-14.227-0.331-0.44-0.851-0.7-1.401-0.7-0.552 0-1.072 0.26-1.404 0.7-3.33 4.425-4.981 9.211-4.909 14.227-0.008 0.535 0.014 1.066 0.045 1.597-0.352-0.396-0.713-0.788-1.097-1.161-3.493-3.599-8.045-5.816-13.529-6.589-0.549-0.076-1.098 0.107-1.487 0.497-0.39 0.391-0.574 0.941-0.498 1.487 0.774 5.484 2.99 10.036 6.588 13.531 0.375 0.386 0.769 0.748 1.168 1.103-0.427-0.024-0.854-0.054-1.284-0.054-0.107 0-0.213 0-0.319 0.002-0.106-0.002-0.212-0.002-0.321-0.002-4.898 0-9.577 1.65-13.905 4.911-0.44 0.332-0.7 0.851-0.7 1.402 0 0.553 0.259 1.071 0.7 1.403 4.329 3.26 9.008 4.91 13.908 4.91 0.106 0 0.212 0 0.318-0.002 0.106 0.002 0.223-0.006 0.318 0.002 0.432 0 0.859-0.029 1.288-0.053-0.399 0.354-0.793 0.717-1.168 1.104-3.599 3.494-5.816 8.047-6.59 13.529-0.077 0.547 0.107 1.096 0.498 1.486 0.331 0.332 0.779 0.516 1.242 0.516 0.081 0 0.163-0.006 0.246-0.018 5.484-0.773 10.036-2.99 13.529-6.588 0.384-0.373 0.745-0.766 1.097-1.162-0.031 0.531-0.053 1.062-0.045 1.598-0.073 5.016 1.579 9.801 4.909 14.227 0.332 0.441 0.853 0.701 1.404 0.701 0.551 0 1.07-0.26 1.402-0.701 3.33-4.426 4.982-9.211 4.909-14.227 0.008-0.535-0.014-1.066-0.046-1.596 0.353 0.396 0.712 0.789 1.097 1.16 3.494 3.598 8.046 5.814 13.529 6.588 0.082 0.012 0.165 0.018 0.246 0.018 0.461 0 0.91-0.184 1.242-0.516 0.391-0.391 0.574-0.939 0.496-1.486-0.772-5.484-2.99-10.037-6.588-13.529-0.375-0.387-0.77-0.75-1.169-1.104 0.428 0.023 0.855 0.053 1.286 0.053 0.107 0 0.213 0 0.317-0.002 0.106 0.002 0.213 0.002 0.318 0.002 0.001 0 0 0 0.001 0 4.899 0 9.579-1.65 13.908-4.91 0.44-0.332 0.7-0.85 0.7-1.403C81.651 49.448 81.392 48.929 80.951 48.597zM48.784 49.509l1.217-1.215 1.214 1.215-1.214 1.215L48.784 49.509zM59.828 36.215c0.013-0.014 0.026-0.027 0.039-0.04 2.41-2.489 5.449-4.198 9.058-5.099-0.901 3.607-2.61 6.646-5.099 9.057-0.014 0.012-0.027 0.027-0.04 0.04-2.411 2.489-5.449 4.198-9.057 5.099C55.63 41.665 57.339 38.624 59.828 36.215zM47.2 33.247c-0.054-3.464 0.886-6.822 2.801-10.009 1.914 3.187 2.854 6.545 2.799 10.008 0 0.02 0 0.039 0 0.058 0.056 3.463-0.885 6.82-2.799 10.008-1.915-3.188-2.854-6.544-2.801-10.009C47.2 33.285 47.2 33.266 47.2 33.247zM31.077 31.076c3.608 0.9 6.647 2.609 9.056 5.099 0.014 0.013 0.027 0.026 0.04 0.04 2.489 2.409 4.199 5.448 5.098 9.057-3.606-0.901-6.646-2.61-9.057-5.101-0.013-0.013-0.027-0.026-0.039-0.039C33.686 37.722 31.977 34.684 31.077 31.076zM33.303 52.799c-0.009 0-0.018 0-0.027 0s-0.019 0-0.029 0c-0.096 0.002-0.192 0.004-0.289 0.004-3.361 0-6.62-0.941-9.72-2.803 3.099-1.861 6.358-2.801 9.717-2.801 0.098 0 0.195 0 0.292 0.002 0.019 0.001 0.038 0.001 0.056 0 0.098-0.002 0.195-0.002 0.292-0.002 3.359 0 6.619 0.939 9.717 2.801-3.099 1.862-6.359 2.803-9.719 2.803C33.496 52.803 33.399 52.801 33.303 52.799zM40.174 63.785c-0.014 0.014-0.027 0.025-0.041 0.039-2.409 2.488-5.448 4.197-9.056 5.1 0.899-3.607 2.608-6.646 5.098-9.059 0.013-0.012 0.026-0.025 0.041-0.039 2.409-2.488 5.448-4.197 9.056-5.098C44.371 58.336 42.662 61.375 40.174 63.785zM52.8 66.752c0.056 3.465-0.885 6.822-2.799 10.01-1.915-3.188-2.854-6.545-2.801-10.01 0-0.02 0-0.037 0-0.055-0.054-3.465 0.886-6.822 2.801-10.01 1.914 3.188 2.854 6.545 2.799 10.01C52.8 66.715 52.8 66.732 52.8 66.752zM68.924 68.924c-3.607-0.902-6.646-2.611-9.058-5.098-0.013-0.014-0.025-0.027-0.038-0.041-2.489-2.41-4.198-5.449-5.099-9.057 3.607 0.9 6.646 2.609 9.056 5.098 0.014 0.014 0.026 0.027 0.04 0.039C66.314 62.277 68.022 65.314 68.924 68.924zM67.042 52.803c-0.096 0-0.192-0.002-0.289-0.004-0.01 0-0.02 0-0.029 0-0.009 0-0.018 0-0.028 0-0.096 0.002-0.192 0.004-0.289 0.004-3.361 0-6.62-0.941-9.718-2.803 3.098-1.861 6.356-2.801 9.717-2.801 0.097 0 0.194 0 0.29 0.002 0.02 0.001 0.039 0.001 0.058 0 0.097-0.002 0.194-0.002 0.291-0.002 3.36 0 6.62 0.939 9.718 2.801C73.664 51.861 70.404 52.803 67.042 52.803z" data-fill-palette-color="accent"></path><circle fill="#d5880a" cx="66.725" cy="50" r="2.3" data-fill-palette-color="accent"></circle><circle fill="#d5880a" cx="33.276" cy="50" r="2.3" data-fill-palette-color="accent"></circle><circle fill="#d5880a" cx="50" cy="66.725" r="2.3" data-fill-palette-color="accent"></circle><circle fill="#d5880a" cx="50" cy="33.275" r="2.3" data-fill-palette-color="accent"></circle><circle fill="#d5880a" cx="61.827" cy="61.825" r="2.3" data-fill-palette-color="accent"></circle><circle fill="#d5880a" cx="38.174" cy="38.174" r="2.3" data-fill-palette-color="accent"></circle><circle fill="#d5880a" cx="38.174" cy="61.825" r="2.3" data-fill-palette-color="accent"></circle><circle fill="#d5880a" cx="61.827" cy="38.174" r="2.3" data-fill-palette-color="accent"></circle></g></svg></g></svg></g></svg></g><defs></defs></svg><rect width="395.5199999999999" height="84.54447816817363" fill="none" stroke="none" visibility="hidden"></rect></g></svg></g></svg>